<?xml version="1.0" encoding="utf-8"?>
<!-- Generator: Adobe Illustrator 21.1.0, SVG Export Plug-In . SVG Version: 6.00 Build 0)  -->
<svg version="1.1" id="Capa_1" xmlns="http://www.w3.org/2000/svg" xmlns:xlink="http://www.w3.org/1999/xlink" x="0px" y="0px"
	 viewBox="0 0 102.7 79.6" style="enable-background:new 0 0 102.7 79.6;" xml:space="preserve">
<style type="text/css">
	.st0{fill:#4D4D4D;}
	.st1{clip-path:url(#SVGID_2_);fill:url(#SVGID_3_);}
	.st2{clip-path:url(#SVGID_5_);fill:url(#SVGID_6_);}
	.st3{clip-path:url(#SVGID_8_);fill:url(#SVGID_9_);}
	.st4{fill:none;stroke:#C5E41E;stroke-width:0.914;stroke-linecap:round;stroke-linejoin:round;stroke-miterlimit:22.926;}
</style>
<g>
	<path class="st0" d="M65,66.2c0.9,0,1.7-0.1,2.3-0.4c0.7-0.3,1.4-0.8,2.2-1.6l-1.3-1.4c-0.6,0.6-1.1,1-1.6,1.2s-1,0.3-1.6,0.3
		c-0.7,0-1.3-0.2-1.8-0.5c-0.6-0.3-1-0.7-1.3-1.3c-0.3-0.5-0.5-1.2-0.5-1.8c0-1,0.3-1.8,1-2.5s1.5-1,2.5-1c1.2,0,2.2,0.5,3.2,1.5
		l1.4-1.3c-0.6-0.7-1.3-1.2-2.1-1.5c-0.8-0.4-1.6-0.5-2.5-0.5c-1,0-2,0.2-2.8,0.7c-0.9,0.5-1.6,1.1-2,1.9c-0.5,0.8-0.7,1.7-0.7,2.8
		c0,1.6,0.5,2.9,1.5,3.9C62.1,65.7,63.4,66.2,65,66.2z"/>
	<polygon class="st0" points="84.6,54.7 87.2,52 84.9,52 84.5,52.6 83.2,54.7 84.5,54.7 	"/>
	<path class="st0" d="M17.6,55.6h-2v6.5c0,0.7,0,1.2-0.1,1.4c-0.1,0.2-0.3,0.4-0.5,0.6c-0.3,0.2-0.6,0.2-0.9,0.2
		c-0.3,0-0.6-0.1-0.8-0.2s-0.4-0.3-0.5-0.6c-0.1-0.2-0.2-0.6-0.2-1.2v-6.7h-2v6.2c0,1.2,0.1,2.1,0.4,2.6c0.2,0.5,0.6,1,1.2,1.3
		c0.6,0.4,1.2,0.5,2,0.5c0.6,0,1.1-0.1,1.5-0.3c0.4-0.2,0.8-0.5,1.2-0.8c0.3-0.4,0.6-0.8,0.7-1.2c0.1-0.4,0.2-1.1,0.2-2.2v-6.1H17.6
		z"/>
	<path class="st0" d="M41.7,64.8c0.5-0.4,0.8-1,1.1-1.7s0.4-1.4,0.4-2.2c0-1.1-0.2-2.1-0.7-3c-0.5-0.8-1.1-1.5-1.8-1.8
		c-0.4-0.2-0.9-0.4-1.6-0.5c-0.6,0-1.2,0-1.8,0H35V66h2.4c0.7,0,1.3,0,1.7-0.1c0.5,0,0.8-0.1,1.1-0.2C40.7,65.6,41.2,65.2,41.7,64.8
		z M39,64c-0.3,0.1-0.7,0.1-1.2,0.1h-0.9v-6.6h0.7c0.6,0,1.1,0.1,1.5,0.2c0.5,0.1,0.9,0.4,1.2,0.7c0.6,0.6,0.9,1.5,0.9,2.6
		c0,0.7-0.1,1.3-0.4,1.8c-0.3,0.5-0.6,0.8-1,1C39.6,63.8,39.4,63.9,39,64z"/>
	<path class="st0" d="M53.5,63.8l0.8,2.1h2.1l-4-10.4h-1h-1l-4,10.4h2.1l0.8-2.1h2.1H53.5z M50,61.9l1.4-3.6l0,0l1.4,3.6h-1.4H50z"
		/>
	<path class="st0" d="M84.5,66.2L84.5,66.2c1.5,0,2.8-0.5,3.8-1.6s1.6-2.3,1.6-3.9c0-1.5-0.5-2.8-1.6-3.9s-2.3-1.6-3.8-1.6l0,0
		c-1,0-1.9,0.2-2.7,0.7c-0.8,0.5-1.5,1.2-2,2s-0.7,1.8-0.7,2.7c0,1.5,0.5,2.8,1.6,3.8C81.7,65.7,83,66.2,84.5,66.2z M82.1,58.2
		c0.7-0.7,1.5-1,2.4-1l0,0c0.9,0,1.8,0.3,2.4,1c0.7,0.7,1,1.5,1,2.5s-0.3,1.8-1,2.5s-1.5,1-2.4,1l0,0c-0.8,0-1.5-0.3-2.2-0.8
		c-0.8-0.7-1.2-1.6-1.2-2.7C81.1,59.8,81.4,58.9,82.1,58.2z"/>
	<polygon class="st0" points="1.6,66 3.6,66 3.6,61.3 6.8,61.3 6.8,59.4 3.6,59.4 3.6,57.5 6.8,57.5 6.8,55.6 1.6,55.6 	"/>
	<polygon class="st0" points="95.9,59.1 100.4,66 102.3,66 102.3,55.6 100.3,55.6 100.3,62.4 95.8,55.6 94,55.6 94,66 95.9,66 	"/>
	<polygon class="st0" points="28.5,62.4 24,55.6 22.1,55.6 22.1,66 24.1,66 24.1,59.1 28.5,66 30.4,66 30.4,55.6 28.5,55.6 	"/>
	<rect x="73.3" y="55.6" class="st0" width="2" height="10.4"/>
	<path class="st0" d="M24.7,75.5c0,0.6,0,0.9-0.1,1.1c-0.1,0.3-0.2,0.5-0.5,0.6c-0.2,0.2-0.5,0.2-0.8,0.2s-0.6-0.1-0.8-0.2
		c-0.2-0.2-0.4-0.4-0.5-0.7c-0.1-0.2-0.1-0.6-0.1-1.1v-2.1h-0.6v2.2c0,0.6,0.1,1.1,0.2,1.5c0.1,0.3,0.4,0.6,0.7,0.8
		c0.3,0.2,0.7,0.3,1.1,0.3s0.8-0.1,1.1-0.3c0.3-0.2,0.5-0.4,0.7-0.8c0.1-0.3,0.2-0.8,0.2-1.4v-2.2h-0.6
		C24.7,73.4,24.7,75.5,24.7,75.5z"/>
	<path class="st0" d="M19,73.8c0.3,0,0.6,0.2,0.9,0.5l0.4-0.4c-0.4-0.4-0.9-0.6-1.3-0.6s-0.7,0.1-0.9,0.3c-0.2,0.2-0.4,0.5-0.4,0.9
		c0,0.3,0.1,0.5,0.2,0.7s0.4,0.4,0.8,0.6s0.6,0.4,0.7,0.5s0.2,0.3,0.2,0.4c0,0.2-0.1,0.4-0.2,0.5c-0.2,0.1-0.4,0.2-0.6,0.2
		c-0.3,0-0.7-0.2-1-0.5l-0.4,0.4c0.2,0.2,0.4,0.4,0.6,0.5s0.5,0.2,0.8,0.2c0.4,0,0.7-0.1,1-0.4s0.4-0.6,0.4-1c0-0.3-0.1-0.5-0.2-0.7
		c-0.2-0.2-0.5-0.4-0.9-0.7c-0.4-0.2-0.6-0.3-0.7-0.5c-0.1-0.1-0.2-0.3-0.2-0.4c0-0.2,0.1-0.3,0.2-0.4C18.7,73.8,18.8,73.8,19,73.8z
		"/>
	<path class="st0" d="M2,72.5c0.4-0.2,0.9-0.4,1.4-0.4s0.9,0.1,1.2,0.3c0.4,0.2,0.7,0.4,1,0.8L6,72.9c-0.3-0.4-0.7-0.7-1.1-1
		c-0.5-0.2-1-0.3-1.6-0.3c-0.9,0-1.7,0.3-2.4,0.9C0.3,73.1,0,73.9,0,74.8c0,0.9,0.3,1.6,0.8,2.2c0.6,0.7,1.5,1.1,2.6,1.1
		c0.6,0,1.1-0.1,1.5-0.3c0.5-0.2,0.8-0.5,1.1-0.9l-0.5-0.4c-0.6,0.7-1.3,1-2.2,1c-0.8,0-1.4-0.3-2-0.8c-0.5-0.5-0.8-1.1-0.8-1.9
		c0-0.5,0.1-0.9,0.3-1.3C1.2,73.1,1.6,72.8,2,72.5z"/>
	<rect x="26.5" y="71.6" class="st0" width="0.6" height="6.3"/>
	<path class="st0" d="M9.3,73.2L9.3,73.2c-0.7,0-1.3,0.3-1.8,0.8c-0.4,0.5-0.6,1-0.6,1.6s0.2,1.2,0.7,1.7C8,77.8,8.6,78,9.3,78l0,0
		c0.7,0,1.3-0.2,1.7-0.7s0.7-1,0.7-1.7c0-0.6-0.2-1.2-0.6-1.6C10.6,73.5,10,73.2,9.3,73.2z M10.9,76.6c-0.2,0.3-0.4,0.5-0.6,0.7
		c-0.3,0.2-0.6,0.2-0.9,0.2c-0.3,0-0.6-0.1-0.9-0.2c-0.3-0.2-0.5-0.4-0.6-0.7c-0.2-0.3-0.2-0.6-0.2-0.9c0-0.5,0.2-0.9,0.5-1.3
		C8.5,74,9,73.9,9.5,73.9s0.9,0.2,1.3,0.5c0.4,0.4,0.5,0.8,0.5,1.3C11.1,76,11,76.3,10.9,76.6z"/>
	<path class="st0" d="M16,73.5c-0.3-0.2-0.6-0.3-0.9-0.3c-0.3,0-0.6,0.1-0.9,0.2c-0.3,0.2-0.5,0.4-0.8,0.7v-0.8h-0.6v4.6h0.6v-1.7
		c0-0.6,0-1,0.1-1.2c0.1-0.3,0.3-0.6,0.6-0.9c0.3-0.2,0.6-0.4,1-0.4c0.3,0,0.6,0.1,0.8,0.2c0.2,0.2,0.3,0.4,0.4,0.7
		c0,0.2,0.1,0.5,0.1,1v2.2H17v-2.2c0-0.6-0.1-1.1-0.2-1.4C16.5,73.9,16.3,73.7,16,73.5z"/>
	<path class="st0" d="M75.2,73.5c-0.2-0.2-0.5-0.2-0.8-0.2s-0.7,0.1-0.9,0.3c-0.3,0.2-0.5,0.5-0.7,0.8c-0.1-0.3-0.2-0.5-0.3-0.6
		c-0.1-0.1-0.3-0.3-0.5-0.3c-0.2-0.1-0.4-0.1-0.6-0.1c-0.3,0-0.6,0.1-0.9,0.3c-0.2,0.1-0.4,0.3-0.6,0.6v-0.8h-0.6v4.6h0.6v-1.9
		c0-0.6,0.1-1,0.2-1.3s0.3-0.5,0.5-0.7s0.5-0.2,0.8-0.2c0.2,0,0.4,0.1,0.6,0.2s0.3,0.3,0.4,0.5s0.1,0.6,0.1,1.1v2.3h0.6v-1.8
		c0-0.7,0.1-1.1,0.2-1.4s0.3-0.5,0.5-0.7s0.5-0.3,0.8-0.3c0.2,0,0.4,0.1,0.6,0.2s0.3,0.3,0.4,0.4c0.1,0.2,0.1,0.5,0.1,1V78H76v-2.5
		c0-0.6-0.1-1-0.2-1.3C75.7,73.8,75.5,73.6,75.2,73.5z"/>
	<path class="st0" d="M84,73.4c-0.2,0.1-0.4,0.3-0.6,0.6v-0.7h-0.6v4.6h0.6v-1.5c0-0.8,0-1.3,0.1-1.6c0.1-0.3,0.2-0.6,0.4-0.8
		c0.2-0.2,0.4-0.2,0.6-0.2c0.1,0,0.2,0,0.3,0.1l0.3-0.5c-0.2-0.1-0.4-0.2-0.5-0.2C84.4,73.2,84.2,73.3,84,73.4z"/>
	<path class="st0" d="M79.6,73.2L79.6,73.2c-0.4,0-0.7,0.1-1,0.2c-0.3,0.2-0.6,0.4-0.8,0.7v-0.8h-0.6v6.3h0.6v-2.5
		c0.2,0.3,0.5,0.5,0.8,0.7c0.3,0.1,0.6,0.2,0.9,0.2h0.1c0.6,0,1.2-0.2,1.7-0.7s0.7-1,0.7-1.7s-0.2-1.2-0.7-1.7
		C80.8,73.5,80.2,73.2,79.6,73.2z M81.1,76.5c-0.2,0.3-0.4,0.5-0.7,0.7c-0.3,0.2-0.6,0.2-0.9,0.2l0,0c-0.3,0-0.6-0.1-0.9-0.2
		c-0.3-0.2-0.5-0.4-0.7-0.7c-0.2-0.3-0.2-0.6-0.2-0.9c0-0.5,0.2-1,0.5-1.3c0.3-0.4,0.8-0.5,1.3-0.5c0.3,0,0.6,0.1,0.9,0.2
		c0.3,0.2,0.5,0.4,0.7,0.7c0.2,0.3,0.2,0.6,0.2,0.9C81.4,75.9,81.3,76.3,81.1,76.5z"/>
	<path class="st0" d="M90.1,75.7c0-0.6-0.2-1.1-0.5-1.6c-0.5-0.6-1.1-0.9-1.8-0.9l0,0c-0.8,0-1.4,0.3-1.8,0.9
		c-0.4,0.5-0.5,1-0.5,1.5c0,0.6,0.2,1.2,0.6,1.7s1,0.7,1.7,0.7l0,0c0.3,0,0.6-0.1,0.9-0.2s0.5-0.2,0.7-0.4c0.2-0.2,0.4-0.5,0.6-0.8
		l-0.5-0.3c-0.2,0.3-0.3,0.5-0.5,0.6s-0.3,0.2-0.6,0.3c-0.2,0.1-0.4,0.1-0.6,0.1l0,0c-0.5,0-0.9-0.2-1.2-0.5
		c-0.4-0.2-0.6-0.6-0.6-1.1h1.8H90.1z M86.1,75.2c0.1-0.4,0.3-0.7,0.5-0.9c0.3-0.3,0.7-0.4,1.2-0.4l0,0c0.3,0,0.5,0.1,0.8,0.2
		c0.2,0.1,0.4,0.3,0.6,0.5s0.3,0.4,0.3,0.7h-1.7L86.1,75.2L86.1,75.2z"/>
	<polygon class="st0" points="64.6,77.9 68.1,77.9 68.1,77.3 65.3,77.3 65.3,74.9 68.1,74.9 68.1,74.3 65.3,74.3 65.3,72.3 
		68.2,72.3 68.2,71.7 64.6,71.7 	"/>
	<path class="st0" d="M101.6,75.3c-0.4-0.2-0.6-0.3-0.7-0.5c-0.1-0.1-0.2-0.3-0.2-0.4c0-0.2,0.1-0.3,0.2-0.4s0.3-0.2,0.5-0.2
		c0.3,0,0.6,0.2,0.9,0.5l0.4-0.4c-0.4-0.4-0.8-0.6-1.3-0.6c-0.4,0-0.7,0.1-0.9,0.3c-0.2,0.2-0.4,0.5-0.4,0.9c0,0.3,0.1,0.5,0.2,0.7
		s0.4,0.4,0.8,0.6s0.6,0.4,0.7,0.5s0.2,0.3,0.2,0.4c0,0.2-0.1,0.4-0.2,0.5c-0.2,0.1-0.4,0.2-0.6,0.2c-0.3,0-0.7-0.2-1-0.5l-0.4,0.4
		c0.2,0.2,0.4,0.4,0.6,0.5s0.5,0.2,0.8,0.2c0.4,0,0.7-0.1,1-0.4s0.4-0.6,0.4-1c0-0.3-0.1-0.5-0.2-0.7S102,75.5,101.6,75.3z"/>
	<path class="st0" d="M98.5,74.2c-0.2-0.3-0.5-0.6-0.8-0.7c-0.3-0.2-0.6-0.2-1-0.2l0,0c-0.6,0-1.2,0.2-1.7,0.7s-0.7,1-0.7,1.7
		s0.2,1.2,0.7,1.7s1,0.7,1.7,0.7h0.1c0.3,0,0.7-0.1,0.9-0.2c0.3-0.1,0.6-0.4,0.8-0.7V78h0.6v-4.6h-0.6V74.2z M98.3,76.6
		c-0.2,0.3-0.4,0.5-0.7,0.7c-0.3,0.2-0.6,0.2-0.9,0.2l0,0c-0.3,0-0.6-0.1-0.9-0.2c-0.3-0.2-0.5-0.4-0.7-0.7
		c-0.2-0.3-0.2-0.6-0.2-0.9s0.1-0.6,0.2-0.9c0.2-0.3,0.4-0.5,0.7-0.7c0.3-0.2,0.6-0.2,0.9-0.2l0,0c0.5,0,0.9,0.2,1.3,0.5
		c0.3,0.4,0.5,0.8,0.5,1.3C98.5,76,98.5,76.3,98.3,76.6z"/>
	<path class="st0" d="M92.2,73.8c0.3,0,0.6,0.2,0.9,0.5l0.4-0.4c-0.4-0.4-0.8-0.6-1.3-0.6c-0.4,0-0.7,0.1-0.9,0.3
		c-0.2,0.2-0.4,0.5-0.4,0.9c0,0.3,0.1,0.5,0.2,0.7s0.4,0.4,0.8,0.6s0.6,0.4,0.7,0.5s0.2,0.3,0.2,0.4c0,0.2-0.1,0.4-0.2,0.5
		c-0.2,0.1-0.4,0.2-0.6,0.2c-0.3,0-0.7-0.2-1-0.5l-0.4,0.4c0.2,0.2,0.4,0.4,0.6,0.5S91.7,78,92,78c0.4,0,0.7-0.1,1-0.4
		s0.4-0.6,0.4-1c0-0.3-0.1-0.5-0.2-0.7c-0.2-0.2-0.5-0.4-0.9-0.7c-0.4-0.2-0.6-0.3-0.7-0.5c-0.1-0.1-0.2-0.3-0.2-0.4
		c0-0.2,0.1-0.3,0.2-0.4C91.9,73.8,92,73.8,92.2,73.8z"/>
	<path class="st0" d="M33.4,73.2L33.4,73.2c-0.7,0-1.3,0.3-1.8,0.8c-0.4,0.5-0.6,1-0.6,1.6s0.2,1.2,0.7,1.7c0.4,0.5,1,0.7,1.7,0.7
		l0,0c0.7,0,1.3-0.2,1.7-0.7s0.7-1,0.7-1.7c0-0.6-0.2-1.2-0.6-1.6C34.7,73.5,34.1,73.2,33.4,73.2z M34.9,76.6
		c-0.2,0.3-0.4,0.5-0.7,0.7s-0.6,0.2-0.9,0.2c-0.3,0-0.6-0.1-0.9-0.2c-0.3-0.2-0.5-0.4-0.7-0.7c-0.2-0.3-0.2-0.6-0.2-0.9
		c0-0.5,0.2-0.9,0.5-1.3c0.4-0.4,0.8-0.5,1.3-0.5s0.9,0.2,1.3,0.5c0.4,0.4,0.5,0.8,0.5,1.3C35.1,76,35.1,76.3,34.9,76.6z"/>
	<path class="st0" d="M43.9,75.7c0-0.6-0.2-1.1-0.5-1.6c-0.5-0.6-1.1-0.9-1.8-0.9l0,0c-0.8,0-1.4,0.3-1.8,0.9
		c-0.4,0.5-0.5,1-0.5,1.5c0,0.6,0.2,1.2,0.6,1.7c0.4,0.5,1,0.7,1.7,0.7l0,0c0.3,0,0.6-0.1,0.9-0.2c0.3-0.1,0.5-0.2,0.7-0.4
		c0.2-0.2,0.4-0.5,0.6-0.8l-0.5-0.3c-0.2,0.3-0.3,0.5-0.5,0.6s-0.3,0.2-0.6,0.3c-0.2,0.1-0.4,0.1-0.6,0.1l0,0
		c-0.5,0-0.9-0.2-1.2-0.5s-0.5-0.8-0.5-1.3h1.8h2.2V75.7z M39.8,75.2c0.1-0.4,0.3-0.7,0.5-0.9c0.3-0.3,0.7-0.4,1.2-0.4l0,0
		c0.3,0,0.5,0.1,0.8,0.2c0.2,0.1,0.4,0.3,0.6,0.5c0.2,0.2,0.3,0.4,0.3,0.7h-1.7L39.8,75.2L39.8,75.2z"/>
	<path class="st0" d="M37.8,73.4c-0.2,0.1-0.4,0.3-0.6,0.6v-0.7h-0.6v4.6h0.6v-1.5c0-0.8,0-1.3,0.1-1.6c0.1-0.3,0.2-0.6,0.4-0.8
		c0.2-0.2,0.4-0.2,0.6-0.2c0.1,0,0.2,0,0.3,0.1l0.3-0.5c-0.2-0.1-0.4-0.2-0.5-0.2C38.2,73.2,38,73.3,37.8,73.4z"/>
	<polygon class="st0" points="29.4,71.6 28.8,71.6 28.8,73.3 28,73.3 28,73.8 28.8,73.8 28.8,77.9 29.4,77.9 29.4,73.8 30.3,73.8 
		30.3,73.3 29.4,73.3 	"/>
	<path class="st0" d="M61.1,75.7c0-0.6-0.2-1.1-0.5-1.6c-0.5-0.6-1.1-0.9-1.8-0.9l0,0c-0.8,0-1.4,0.3-1.8,0.9
		c-0.4,0.5-0.5,1-0.5,1.5c0,0.6,0.2,1.2,0.6,1.7c0.4,0.5,1,0.7,1.7,0.7l0,0c0.3,0,0.6-0.1,0.9-0.2c0.3-0.1,0.5-0.2,0.7-0.4
		c0.2-0.2,0.4-0.5,0.6-0.8l-0.5-0.3c-0.2,0.3-0.3,0.5-0.5,0.6s-0.3,0.2-0.6,0.3c-0.2,0.1-0.4,0.1-0.6,0.1l0,0
		c-0.5,0-0.9-0.2-1.2-0.5c-0.5-0.2-0.6-0.6-0.6-1.1h1.8H61.1z M57,75.2c0.1-0.4,0.3-0.7,0.5-0.9c0.3-0.3,0.7-0.4,1.2-0.4l0,0
		c0.3,0,0.5,0.1,0.8,0.2c0.2,0.1,0.4,0.3,0.6,0.5c0.2,0.2,0.3,0.4,0.3,0.7h-1.7L57,75.2L57,75.2z"/>
	<path class="st0" d="M46,73.8c0.3,0,0.6,0.2,0.9,0.5l0.4-0.4c-0.4-0.4-0.8-0.6-1.3-0.6c-0.4,0-0.7,0.1-0.9,0.3
		c-0.2,0.2-0.4,0.5-0.4,0.9c0,0.3,0.1,0.5,0.2,0.7c0.2,0.2,0.4,0.4,0.8,0.6c0.4,0.2,0.6,0.4,0.7,0.5c0.1,0.1,0.2,0.3,0.2,0.4
		c0,0.2-0.1,0.4-0.2,0.5c-0.2,0.1-0.4,0.2-0.6,0.2c-0.3,0-0.7-0.2-1-0.5l-0.4,0.4c0.2,0.2,0.4,0.4,0.6,0.5c0.2,0.1,0.5,0.2,0.8,0.2
		c0.4,0,0.7-0.1,1-0.4s0.4-0.6,0.4-1c0-0.3-0.1-0.5-0.2-0.7c-0.2-0.2-0.5-0.4-0.9-0.7c-0.4-0.2-0.6-0.3-0.7-0.5
		c-0.1-0.1-0.2-0.3-0.2-0.4c0-0.2,0.1-0.3,0.2-0.4C45.6,73.8,45.8,73.8,46,73.8z"/>
	<path class="st0" d="M54.7,74.2c-0.2-0.3-0.5-0.6-0.8-0.7c-0.3-0.2-0.6-0.2-1-0.2l0,0c-0.7,0-1.2,0.2-1.7,0.7s-0.7,1-0.7,1.7
		s0.2,1.2,0.7,1.7s1,0.7,1.7,0.7H53c0.3,0,0.7-0.1,0.9-0.2c0.3-0.1,0.6-0.4,0.8-0.7V78h0.6v-6.4h-0.6V74.2z M54.5,76.6
		c-0.2,0.3-0.4,0.5-0.7,0.7s-0.6,0.2-0.9,0.2l0,0c-0.3,0-0.6-0.1-0.9-0.2c-0.3-0.2-0.5-0.4-0.7-0.7c-0.2-0.3-0.2-0.6-0.2-0.9
		s0.1-0.6,0.2-0.9c0.2-0.3,0.4-0.5,0.7-0.7s0.6-0.2,0.9-0.2l0,0c0.5,0,0.9,0.2,1.3,0.5c0.3,0.4,0.5,0.8,0.5,1.3
		C54.7,76,54.6,76.3,54.5,76.6z"/>
</g>
<g>
	<g>
		<defs>
			<path id="SVGID_1_" d="M28.3,37.7c1.9,7.3,7.7,5,6.8,0.1c-4.4-22,5.4-35.4,25.1-36.9C57.8,0.3,55.6,0,53.4,0
				C34.9,0.1,23.9,20.3,28.3,37.7"/>
		</defs>
		<clipPath id="SVGID_2_">
			<use xlink:href="#SVGID_1_"  style="overflow:visible;"/>
		</clipPath>
		
			<linearGradient id="SVGID_3_" gradientUnits="userSpaceOnUse" x1="-504.6092" y1="-33.0537" x2="-503.6092" y2="-33.0537" gradientTransform="matrix(-233.0942 175.6491 -175.6491 -233.0942 -123275.8203 80869.5234)">
			<stop  offset="0" style="stop-color:#0C071B"/>
			<stop  offset="0.5" style="stop-color:#1D095A"/>
			<stop  offset="1" style="stop-color:#1D095A"/>
		</linearGradient>
		<polygon class="st1" points="81.8,28.7 37,62.4 2.3,16.3 47,-17.4 		"/>
	</g>
</g>
<g>
	<g>
		<defs>
			<path id="SVGID_4_" d="M42,11.7C31.5,24.2,41,45,60.3,40.9c5.4-1.1,9.2-4,9.8-9.5l0,0l-0.8,1.4c-3,5.4-7.8,6.7-13.8,6.2
				c-14-1.1-17.3-16.1-10.3-24.8c9-11,28.3,0.5,19.4,10c-2.2,2.8,5.7,3,7.6,0.8c6-9.8-5.1-19.5-16.6-19.5C50.8,5.5,45.7,7.3,42,11.7
				"/>
		</defs>
		<clipPath id="SVGID_5_">
			<use xlink:href="#SVGID_4_"  style="overflow:visible;"/>
		</clipPath>
		
			<linearGradient id="SVGID_6_" gradientUnits="userSpaceOnUse" x1="-503.1859" y1="-48.1904" x2="-502.1859" y2="-48.1904" gradientTransform="matrix(-23.2675 4.9457 -4.9457 -23.2675 -11877.9736 1388.6016)">
			<stop  offset="0" style="stop-color:#7A8B12"/>
			<stop  offset="0.4" style="stop-color:#B9D51D"/>
			<stop  offset="0.55" style="stop-color:#C5E41E"/>
			<stop  offset="1" style="stop-color:#C5E41E"/>
		</linearGradient>
		<polygon class="st2" points="86.8,43.2 33.5,54.5 23,5 76.3,-6.3 		"/>
	</g>
</g>
<g>
	<g>
		<defs>
			<path id="SVGID_7_" d="M20.6,24.7c0,1.5,1.4,3.2,2.8,2.6c5.6-2.5,17.1-1.7,27.5-0.8c11.7,1,22.2,1.9,21.7-1.9L72.2,25
				c-2.1,1.9-10.8-0.7-20.4-3.3c-7.3-2-15.2-4-21.2-4C24.9,17.5,20.9,19.3,20.6,24.7"/>
		</defs>
		<clipPath id="SVGID_8_">
			<use xlink:href="#SVGID_7_"  style="overflow:visible;"/>
		</clipPath>
		
			<linearGradient id="SVGID_9_" gradientUnits="userSpaceOnUse" x1="-504.8329" y1="-35.6717" x2="-503.8329" y2="-35.6717" gradientTransform="matrix(-100.8139 21.4287 -21.4287 -100.8139 -51563.9648 7234.5366)">
			<stop  offset="0" style="stop-color:#849614"/>
			<stop  offset="0.4" style="stop-color:#B9D51D"/>
			<stop  offset="0.55" style="stop-color:#C5E41E"/>
			<stop  offset="1" style="stop-color:#C5E41E"/>
		</linearGradient>
		<polygon class="st3" points="75.3,27.9 22.9,39.1 18.4,18 70.8,6.9 		"/>
	</g>
</g>
<g>
	<path class="st4" d="M47.6,30.7c2.4,9.6,17.2,7.5,18.5,0.7"/>
	<path class="st4" d="M48.3,30.2c-0.3,0.1-0.9,0.4-1.3,0.6"/>
	<path class="st4" d="M65.5,31c0.1,0,1.5,0.5,1.5,0.5"/>
</g>
</svg>
