<svg id="Capa_1" data-name="Capa 1" xmlns="http://www.w3.org/2000/svg" viewBox="0 0 1359.49 1067.25"><defs><style>.cls-1,.cls-10,.cls-13{fill:#c4e41e;}.cls-1,.cls-13{stroke:#c4e41e;stroke-miterlimit:10;}.cls-1{stroke-width:0.87px;}.cls-2{fill:#096571;}.cls-3{fill:#27a485;}.cls-4{fill:#1c095a;}.cls-5{fill:#026c4e;}.cls-6{fill:#dfe2df;}.cls-7{fill:#5e499a;}.cls-8{fill:#612488;}.cls-9{fill:#f0edea;}.cls-11{fill:#56b025;}.cls-12{fill:#12474a;}.cls-13{stroke-width:1.81px;}</style></defs><polygon class="cls-1" points="1243.4 54.05 1185.75 0.59 1301.06 0.59 1243.4 54.05"/><polygon class="cls-2" points="1300.73 107.51 1243.07 54.05 1358.38 54.05 1300.73 107.51"/><polygon class="cls-3" points="1300.73 214.42 1243.07 160.96 1358.38 160.96 1300.73 214.42"/><polygon class="cls-4" points="1243.4 160.96 1185.75 107.51 1301.06 107.51 1243.4 160.96"/><polygon class="cls-2" points="1243.07 54.05 1300.73 107.51 1185.42 107.51 1243.07 54.05"/><polygon class="cls-1" points="1300.73 0.59 1358.38 54.05 1243.07 54.05 1300.73 0.59"/><polygon class="cls-5" points="1300.73 107.51 1358.38 160.96 1243.07 160.96 1300.73 107.51"/><polygon class="cls-6" points="1243.07 267.88 1185.42 214.42 1300.73 214.42 1243.07 267.88"/><polygon class="cls-6" points="1243.07 160.96 1300.73 214.42 1185.42 214.42 1243.07 160.96"/><polygon class="cls-7" points="1243.61 54.05 1185.95 107.5 1185.95 0.59 1243.61 54.05"/><polygon class="cls-8" points="1243.61 160.96 1185.95 214.42 1185.95 107.51 1243.61 160.96"/><polygon class="cls-1" points="1300.48 108 1358.14 54.55 1358.14 161.46 1300.48 108"/><polygon class="cls-1" points="1129.01 54.05 1186.66 0.59 1071.35 0.59 1129.01 54.05"/><polygon class="cls-4" points="899.57 54.05 957.22 0.59 841.91 0.59 899.57 54.05"/><polygon class="cls-4" points="1014.03 54.05 1071.68 0.59 956.37 0.59 1014.03 54.05"/><polygon class="cls-4" points="1071.68 107.51 1129.34 54.05 1014.03 54.05 1071.68 107.51"/><polygon class="cls-3" points="1071.68 214.42 1129.34 160.96 1014.03 160.96 1071.68 214.42"/><polygon class="cls-9" points="1014.03 160.96 1071.68 107.51 956.37 107.51 1014.03 160.96"/><polygon class="cls-4" points="1129.01 160.96 1186.66 107.51 1071.35 107.51 1129.01 160.96"/><polygon class="cls-1" points="1129.34 54.05 1071.68 107.51 1186.99 107.51 1129.34 54.05"/><polygon class="cls-4" points="1071.68 0.59 1014.03 54.05 1129.34 54.05 1071.68 0.59"/><polygon class="cls-5" points="1071.68 107.51 1014.03 160.96 1129.34 160.96 1071.68 107.51"/><polygon class="cls-9" points="1014.03 55.05 956.37 108.51 1071.68 108.51 1014.03 55.05"/><polygon class="cls-8" points="1128.8 54.05 1186.46 107.5 1186.46 0.59 1128.8 54.05"/><polygon class="cls-8" points="1128.8 160.96 1186.46 214.42 1186.46 107.51 1128.8 160.96"/><polygon class="cls-8" points="1243.07 267.88 1300.73 214.42 1300.73 321.33 1243.07 267.88"/><polygon class="cls-7" points="1243.07 267.88 1300.73 267.88 1300.73 321.33 1243.07 267.88"/><polyline class="cls-10" points="286.76 458.56 286.66 463.85 286.15 487.58 324.31 459.93"/><polyline class="cls-7" points="583.71 449.06 583.64 452.45 583.32 467.64 607.75 449.94"/><polygon class="cls-5" points="596.16 513.76 582.56 696.11 691.03 613.52 596.16 513.76"/><polygon class="cls-11" points="641.39 561.31 690.75 613.98 703.25 511.5 641.39 561.31"/><polygon class="cls-4" points="703.25 511.5 699.86 538.55 745.83 526.29 703.25 511.5"/><polygon class="cls-4" points="596.45 513.8 590.44 590.46 496.65 497.4 596.45 513.8"/><polygon class="cls-4" points="585.52 656.34 582.78 695.95 518.72 668.64 585.52 656.34"/><polygon class="cls-5" points="545.49 680.05 518.84 668.56 516.7 700.8 545.49 680.05"/><polygon class="cls-8" points="613.67 196.49 603.71 330 683.13 269.53 613.67 196.49"/><polygon class="cls-3" points="646.78 231.31 682.92 269.87 692.08 194.84 646.78 231.31"/><polygon class="cls-4" points="692.08 194.84 689.59 214.65 723.25 205.67 692.08 194.84"/><polygon class="cls-4" points="613.88 196.52 609.48 252.64 540.81 184.51 613.88 196.52"/><polygon class="cls-4" points="605.88 300.88 603.87 329.88 556.98 309.89 605.88 300.88"/><polygon class="cls-12" points="576.57 318.24 557.06 309.83 555.5 333.44 576.57 318.24"/><polygon class="cls-10" points="804.1 276.34 797.35 366.9 851.21 325.88 804.1 276.34"/><polygon class="cls-3" points="826.56 299.96 851.07 326.11 857.28 275.22 826.56 299.96"/><polygon class="cls-5" points="857.28 275.22 855.6 288.66 878.42 282.57 857.28 275.22"/><polygon class="cls-5" points="804.24 276.36 801.26 314.43 754.69 268.22 804.24 276.36"/><polygon class="cls-3" points="798.82 347.15 797.46 366.82 765.65 353.25 798.82 347.15"/><polygon class="cls-5" points="778.94 358.92 765.7 353.22 764.64 369.23 778.94 358.92"/><polygon class="cls-4" points="452.83 286.45 541.4 472.01 353.63 381.49 452.83 286.45"/><path class="cls-5" d="M247.06,388.11" transform="translate(108.59 -0.19)"/><polygon class="cls-10" points="353.63 381.49 341.43 461.27 412.8 410.01 353.63 381.49"/><polygon class="cls-8" points="348.71 413.63 341.43 461.27 286.75 458.74 348.71 413.63"/><polygon class="cls-10" points="452.83 286.45 474.06 330.92 505.35 267.27 452.83 286.45"/><polygon class="cls-8" points="505.42 267.27 496.95 283.9 524.88 291.59 505.42 267.27"/><polygon class="cls-2" points="689.62 339 746.31 457.77 626.13 399.83 689.62 339"/><polygon class="cls-7" points="626.13 399.83 618.31 450.89 664 418.09 626.13 399.83"/><polygon class="cls-10" points="622.98 420.4 618.31 450.89 583.32 449.28 622.98 420.4"/><polygon class="cls-7" points="689.62 339 703.21 367.47 723.24 326.73 689.62 339"/><polygon class="cls-13" points="723.28 326.73 717.86 337.37 735.73 342.29 723.28 326.73"/><polygon class="cls-13" points="223.3 944.53 111.65 1064.94 111.65 824.11 223.3 944.53"/><polygon class="cls-8" points="0 704.38 111.65 583.97 111.65 824.8 0 704.38"/><polygon class="cls-7" points="223.3 704.38 111.65 824.8 111.65 583.97 223.3 704.38"/><polygon class="cls-2" points="334.94 824.8 223.3 945.21 223.3 704.38 334.94 824.8"/><polygon class="cls-3" points="558.24 824.8 446.59 945.21 446.59 704.38 558.24 824.8"/><polygon class="cls-9" points="446.59 704.38 334.94 824.8 334.94 583.97 446.59 704.38"/><polygon class="cls-4" points="446.59 944.53 334.94 1064.94 334.94 824.11 446.59 944.53"/><polygon class="cls-2" points="223.3 945.21 334.94 824.8 334.94 1065.63 223.3 945.21"/><polygon class="cls-4" points="111.65 824.8 223.3 704.38 223.3 945.21 111.65 824.8"/><polygon class="cls-5" points="334.94 824.8 446.59 704.38 446.59 945.21 334.94 824.8"/><polygon class="cls-9" points="223.3 704.38 334.94 583.97 334.94 824.8 223.3 704.38"/><polygon class="cls-9" points="334.94 585.75 446.59 465.33 446.59 706.16 334.94 585.75"/><polygon class="cls-6" points="669.89 945.21 558.24 1065.63 558.24 824.8 669.89 945.21"/><polygon class="cls-6" points="446.59 945.21 558.24 824.8 558.24 1065.63 446.59 945.21"/><polygon class="cls-7" points="223.3 944.09 334.94 1064.51 111.65 1064.51 223.3 944.09"/><polygon class="cls-8" points="446.59 944.09 558.24 1064.51 334.95 1064.51 446.59 944.09"/><polygon class="cls-13" points="669.89 944.09 781.53 1064.51 558.24 1064.51 669.89 944.09"/><polygon class="cls-8" points="669.89 944.53 558.24 824.11 781.53 824.11 669.89 944.53"/><polygon class="cls-7" points="669.89 944.53 669.89 824.11 781.53 824.11 669.89 944.53"/><polygon class="cls-4" points="111.65 583.97 223.3 583.97 223.3 704.38 111.65 583.97"/></svg>